<?xml version="1.0" standalone="no"?>
<!DOCTYPE svg PUBLIC "-//W3C//DTD SVG 20010904//EN"
 "http://www.w3.org/TR/2001/REC-SVG-20010904/DTD/svg10.dtd">
<svg version="1.0" xmlns="http://www.w3.org/2000/svg"
 width="600.000000pt" height="600.000000pt" viewBox="0 0 500.000000 500.000000"
 preserveAspectRatio="xMidYMid meet">

<g transform="translate(0.000000,500.000000) scale(0.100000,-0.100000)"
fill="#92009f" stroke="none">
<path d="M2505 3155 c0 -253 1 -355 2 -227 2 128 2 335 0 460 -1 125 -2 20 -2
-233z"/>
<path d="M3291 3178 c-56 -152 -144 -384 -160 -425 -11 -29 -17 -53 -12 -53 5
0 37 75 71 168 34 92 65 170 69 174 3 4 36 -70 72 -165 l65 -172 52 -3 c29 -2
52 0 52 5 0 19 -185 493 -192 493 -5 0 -12 -10 -17 -22z"/>
<path d="M1150 3170 c0 -5 10 -10 23 -10 33 0 64 -37 76 -90 6 -25 11 -119 11
-209 0 -107 3 -162 10 -155 5 5 11 89 12 187 l3 178 85 -183 85 -183 58 -3
c31 -2 57 0 57 3 0 3 -50 111 -112 240 l-111 235 -99 0 c-59 0 -98 -4 -98 -10z"/>
<path d="M2186 3171 c-3 -5 -41 -105 -85 -222 -44 -118 -83 -223 -87 -233 -5
-12 -4 -17 3 -13 5 3 43 97 84 208 l74 201 3 -206 2 -206 54 0 54 0 4 183 c5
211 17 254 76 272 17 5 32 13 32 17 0 11 -208 10 -214 -1z"/>
<path d="M3263 2740 c-18 -11 -33 -25 -33 -32 0 -6 10 -2 23 10 30 28 61 28
75 0 l11 -23 0 22 c1 12 -8 27 -18 33 -25 13 -20 13 -58 -10z"/>
<path d="M1481 2573 c-37 -70 -36 -69 -66 -19 -15 25 -31 46 -36 46 -5 0 -9
-29 -9 -65 0 -37 4 -65 10 -65 6 0 10 21 10 48 l1 47 22 -37 c12 -21 25 -38
29 -38 4 0 17 19 30 41 l23 42 6 -54 c6 -54 6 -54 7 19 1 39 0 72 -3 72 -2 0
-14 -17 -24 -37z"/>
<path d="M1623 2540 c0 -41 2 -58 4 -37 2 20 2 54 0 75 -2 20 -4 3 -4 -38z"/>
<path d="M1741 2538 c1 -40 4 -63 6 -50 6 30 53 31 71 1 7 -12 16 -18 19 -15
3 3 0 12 -6 20 -10 12 -9 20 4 39 27 41 -6 77 -71 77 -23 0 -24 -2 -23 -72z
m84 22 c0 -22 -5 -25 -37 -28 -36 -3 -38 -2 -38 28 0 30 2 31 38 28 32 -3 37
-6 37 -28z"/>
<path d="M1951 2544 c-34 -74 -35 -74 -22 -74 5 0 11 9 14 20 8 30 72 28 88
-2 7 -13 14 -18 16 -11 4 11 -53 133 -61 133 -2 0 -18 -30 -35 -66z m54 6 l16
-30 -31 0 c-16 0 -30 2 -30 5 0 7 23 55 26 55 2 0 10 -13 19 -30z"/>
<path d="M2144 2568 c14 -26 26 -58 26 -72 0 -14 5 -26 10 -26 6 0 10 11 10
25 0 14 12 44 26 66 14 23 23 43 21 45 -3 3 -15 -11 -27 -30 -20 -33 -40 -47
-40 -28 0 4 -12 21 -26 37 l-26 30 26 -47z"/>
<path d="M2780 2539 l0 -70 46 3 c51 3 73 23 59 54 -4 11 -7 29 -6 41 3 26
-25 43 -68 43 l-31 0 0 -71z m85 31 c0 -10 -12 -16 -37 -18 -33 -3 -38 0 -38
18 0 18 5 21 38 18 25 -2 37 -8 37 -18z m3 -62 c-2 -19 -10 -24 -40 -26 -35
-3 -38 -1 -38 22 0 24 4 26 41 26 36 0 40 -2 37 -22z"/>
<path d="M2987 2603 c-4 -3 -7 -35 -7 -70 l0 -63 53 2 c50 1 50 2 10 5 -38 4
-43 7 -43 29 0 21 5 24 36 24 21 0 33 4 29 10 -3 6 -19 10 -36 10 -22 0 -29 5
-29 20 0 17 7 20 41 20 24 0 38 4 34 10 -7 11 -78 14 -88 3z"/>
<path d="M3214 2599 c-24 -39 -62 -129 -54 -129 5 0 14 9 20 20 7 14 21 20 45
20 25 0 35 -5 40 -20 3 -11 11 -20 16 -20 10 0 -4 38 -38 104 -15 30 -22 36
-29 25z m36 -71 c0 -5 -14 -8 -30 -8 l-31 0 17 32 16 32 14 -25 c7 -13 13 -27
14 -31z"/>
<path d="M3382 2555 c-2 -68 8 -85 49 -85 37 0 59 33 59 87 0 61 -18 54 -22
-8 -2 -36 -8 -55 -20 -63 -32 -20 -52 4 -59 70 l-6 59 -1 -60z"/>
<path d="M3570 2600 c0 -5 11 -10 25 -10 23 0 24 -4 28 -62 l3 -63 2 63 c2 59
3 62 27 62 14 0 25 5 25 10 0 6 -25 10 -55 10 -30 0 -55 -4 -55 -10z"/>
<path d="M3750 2602 c0 -8 10 -27 21 -44 12 -17 25 -44 29 -62 7 -26 8 -27 9
-7 1 13 13 44 27 68 14 25 24 47 21 49 -3 3 -15 -13 -28 -35 l-23 -41 -28 43
c-15 23 -28 36 -28 29z"/>
<path d="M1258 2212 c-6 -188 -14 -217 -72 -242 l-41 -19 170 0 c124 0 163 3
145 10 -69 28 -95 49 -122 95 -31 56 -58 170 -58 249 0 30 -4 56 -9 59 -5 3
-11 -63 -13 -152z"/>
<path d="M1666 2253 c30 -65 65 -139 76 -165 11 -27 24 -48 28 -48 4 0 21 37
38 83 73 195 91 247 84 247 -4 0 -16 -24 -26 -52 -10 -29 -25 -69 -33 -88
l-15 -35 -44 88 -44 87 -60 0 -59 0 55 -117z"/>
<path d="M2178 2208 c-4 -188 -12 -211 -73 -239 l-40 -18 170 0 c101 -1 165 3
160 8 -6 5 -19 11 -29 13 -52 9 -76 100 -76 286 l0 112 -54 0 -54 0 -4 -162z"/>
<path d="M2499 1965 c-3 -225 -4 -412 -2 -414 11 -15 13 48 11 415 l-3 409 -6
-410z"/>
<path d="M2890 2323 c-43 -67 -53 -107 -48 -184 6 -79 33 -129 94 -176 35 -26
43 -28 133 -28 113 0 168 21 238 91 70 71 135 224 132 314 -1 35 -2 34 -11
-10 -31 -144 -93 -257 -170 -307 -33 -23 -55 -28 -112 -31 -89 -4 -138 21
-176 88 -36 64 -35 164 3 238 l26 52 -40 0 c-36 0 -42 -4 -69 -47z"/>
<path d="M3530 2362 c0 -5 18 -58 41 -118 22 -60 43 -132 46 -160 7 -67 -19
-100 -97 -118 -52 -13 -42 -14 155 -14 l210 -1 -45 22 c-58 28 -86 75 -155
253 l-53 139 -51 3 c-28 2 -51 -1 -51 -6z"/>
</g>
</svg>
